<?xml version="1.0" encoding="utf-8"?>
<!-- Generator: Adobe Illustrator 19.2.0, SVG Export Plug-In . SVG Version: 6.00 Build 0)  -->
<svg version="1.1" id="Layer_1" xmlns="http://www.w3.org/2000/svg" xmlns:xlink="http://www.w3.org/1999/xlink" x="0px" y="0px"
	 viewBox="0 0 1202.4 530" style="enable-background:new 0 0 1202.4 530;" xml:space="preserve">
<style type="text/css">
	.st0-logo{fill:none;}
	.st1-logo{fill:none;stroke:none;stroke-width:5;stroke-miterlimit:10;}
</style>
<g>
	<rect x="-3" y="-109" class="st0-logo" width="1292.5" height="629.5"/>
	<path class="st1-logo" d="M213.8,496.9c-55.9,0-100.6-15.8-134.3-47.5S28.9,375,28.9,321.1c0-26.2,3.7-51.9,11-77.1s18.2-48.6,32.7-70.3
		c14.5-21.7,31.6-40.8,51.6-57.3c19.9-16.5,43.3-29.4,70-38.8c26.8-9.4,55.3-14.1,85.5-14.1c47.3,0,86.9,11.5,118.9,34.6
		c32,23,52.3,54.3,60.9,93.8l-80.3,23.1c-5.3-24.2-17-42.9-35.2-56c-18.2-13.1-40.7-19.6-67.7-19.6c-24.4,0-47.2,5.1-68.3,15.2
		c-21.1,10.2-38.7,23.6-52.7,40.3s-25.1,35.6-33.1,56.7c-8,21.1-12,42.6-12,64.5c0,32.6,9.8,58.2,29.3,76.6
		c19.5,18.5,45.3,27.7,77.3,27.7c28.7,0,55.5-7.2,80.3-21.7c24.8-14.5,44.2-34.1,58.3-58.9l73.2,33.7c-22.1,39.1-52.1,69.4-90.2,91
		C300.5,486.1,258.9,496.9,213.8,496.9z"/>
	<path class="st1-logo" d="M875.6,69.4h118.7L953.8,491h-81.7l28.7-320.8L733.8,491h-53l-53.9-323.7L541.6,491h-82.9l109-421.6h116.9
		l46.9,273.9L875.6,69.4z"/>
	<path class="st1-logo st1-logo-blue" d="M1113,498.8c-19.3,0-34.7-7.1-46.3-21.3c-11.6-14.2-15.7-31.2-12.3-51c2.9-15.4,10.8-28.6,23.8-39.8
		c13-11.2,27.2-16.8,42.6-16.8c19.8,0,35.5,7.2,47.3,21.7s15.8,31.6,12.1,51.4c-2.6,15.4-10.5,28.5-23.6,39.5
		C1143.4,493.4,1128.9,498.8,1113,498.8z"/>
</g>
<g>
</g>
<g>
</g>
<g>
</g>
<g>
</g>
<g>
</g>
<g>
</g>
</svg>
