<svg version="1.1" id="Layer_1" xmlns="http://www.w3.org/2000/svg" xmlns:xlink="http://www.w3.org/1999/xlink" x="0px" y="0px"
	 viewBox="0 0 666 559" style="enable-background:new 0 0 666 559;" xml:space="preserve">
<style type="text/css">
	.st0-logo{fill:none;}
	.st1-logo{fill:none;stroke:none;stroke-width:5;stroke-miterlimit:10;}
</style>
<g>
	<rect x="38.5" y="33.5" class="st0-logo" width="613" height="500.5"/>
	<path class="st1-logo" d="M359.9,318.1c-17.8,15.8-25.1,23.8-43.6,38.9c-66.7,52.1-127.4,111.5-200,139.9c-53.5,20.5-85.1-9.2-76.6-72.6
		C59.6,291.7,181.1,132.6,284,55.4c34.3-25.1,99-67.3,132-22.4c17.8,25.1,13.9,52.1,1.3,79.2c-19.8,39.6-47.5,72.6-80.5,99.7
		c-15.2,10.6-42.2-7.3-25.1-27.1c38.9-44.9,124.1-170.3,37-126.1c-121.4,66.7-208.6,198-261.4,315.5c-11.9,25.1-39.6,125.4,19.1,103
		c94.4-37,171.6-114.2,250.8-174.2c4.6-4,9.9-7.3,17.2-11.9C375.1,306.9,366.5,312.1,359.9,318.1z"/>
	<path class="st1-logo" d="M561.2,252.1c19.8-15.2,36.3,7.3,29,27.1c-5.3,15.2-17.8,34.3-41.6,104.3c-7.9,33,38.9-46.2,62.7-75.9
		c9.2-11.2,18.5-9.9,9.9,5.3l-64.7,95.7c-8.6,12.5-14.5,12.5-25.7,7.9c-21.8-9.2-13.9-38.9-8.6-54.1c9.9-30.4,23.1-50.8,42.2-92.4
		c-14.5-5.3-106.9,133.3-118.8,127.4c-17.8-5.9-15.8-19.8-13.2-29.7c8.6-24.4,15.2-38.3,19.1-56.1c-21.8,9.2-68,66-94.4,110.9
		c-5.3,8.6-13.9,19.8-25.7,11.2c-8.6-6.6-9.9-15.8-8.6-26.4c7.9-54.1,42.2-136,76.6-163c11.9-9.2,24.4-9.2,32.3-7.3
		c12.5,2.6,11.2,4.6,4.6,12.5c-19.1,22.4-54.8,93.7-60.1,116.2c25.7-29,46.9-56.8,73.9-70.6c17.2-8.6,23.8,9.9,24.4,13.2
		c1.3,6.6-14.5,46.2-23.1,70C482,343.2,525.6,278.5,561.2,252.1z"/>

</g>
</svg>
